<svg width="130" height="29" viewBox="0 0 130 29" fill="none" xmlns="http://www.w3.org/2000/svg">
<path d="M0.0400001 22V0.999999H7.21C9.67 0.999999 11.69 1.44 13.27 2.32C14.87 3.18 16.05 4.4 16.81 5.98C17.59 7.54 17.98 9.38 17.98 11.5C17.98 13.62 17.59 15.47 16.81 17.05C16.05 18.61 14.87 19.83 13.27 20.71C11.69 21.57 9.67 22 7.21 22H0.0400001ZM3.88 18.7H7.03C8.79 18.7 10.18 18.42 11.2 17.86C12.22 17.28 12.95 16.46 13.39 15.4C13.83 14.32 14.05 13.02 14.05 11.5C14.05 10 13.83 8.71 13.39 7.63C12.95 6.55 12.22 5.72 11.2 5.14C10.18 4.56 8.79 4.27 7.03 4.27H3.88V18.7ZM23.3481 4.81C22.6481 4.81 22.0681 4.6 21.6081 4.18C21.1681 3.76 20.9481 3.23 20.9481 2.59C20.9481 1.95 21.1681 1.43 21.6081 1.03C22.0681 0.609999 22.6481 0.399999 23.3481 0.399999C24.0481 0.399999 24.6181 0.609999 25.0581 1.03C25.5181 1.43 25.7481 1.95 25.7481 2.59C25.7481 3.23 25.5181 3.76 25.0581 4.18C24.6181 4.6 24.0481 4.81 23.3481 4.81ZM21.4281 22V7.12H25.2681V22H21.4281ZM33.2962 22L27.8362 7.12H31.8562L35.6362 18.37L39.4162 7.12H43.4362L37.9462 22H33.2962ZM52.3558 22.36C50.8558 22.36 49.5258 22.04 48.3658 21.4C47.2058 20.76 46.2958 19.86 45.6358 18.7C44.9758 17.54 44.6458 16.2 44.6458 14.68C44.6458 13.14 44.9658 11.77 45.6058 10.57C46.2658 9.37 47.1658 8.44 48.3058 7.78C49.4658 7.1 50.8258 6.76 52.3858 6.76C53.8458 6.76 55.1358 7.08 56.2558 7.72C57.3758 8.36 58.2458 9.24 58.8658 10.36C59.5058 11.46 59.8258 12.69 59.8258 14.05C59.8258 14.27 59.8158 14.5 59.7958 14.74C59.7958 14.98 59.7858 15.23 59.7658 15.49H48.4558C48.5358 16.65 48.9358 17.56 49.6558 18.22C50.3958 18.88 51.2858 19.21 52.3258 19.21C53.1058 19.21 53.7558 19.04 54.2758 18.7C54.8158 18.34 55.2158 17.88 55.4758 17.32H59.3758C59.0958 18.26 58.6258 19.12 57.9658 19.9C57.3258 20.66 56.5258 21.26 55.5658 21.7C54.6258 22.14 53.5558 22.36 52.3558 22.36ZM52.3858 9.88C51.4458 9.88 50.6158 10.15 49.8958 10.69C49.1758 11.21 48.7158 12.01 48.5158 13.09H55.9258C55.8658 12.11 55.5058 11.33 54.8458 10.75C54.1858 10.17 53.3658 9.88 52.3858 9.88ZM63.0555 22V7.12H66.4755L66.8355 9.91C67.3755 8.95 68.1055 8.19 69.0255 7.63C69.9655 7.05 71.0655 6.76 72.3255 6.76V10.81H71.2455C70.4055 10.81 69.6555 10.94 68.9955 11.2C68.3355 11.46 67.8155 11.91 67.4355 12.55C67.0755 13.19 66.8955 14.08 66.8955 15.22V22H63.0555ZM81.1 22.36C79.78 22.36 78.62 22.15 77.62 21.73C76.62 21.29 75.82 20.69 75.22 19.93C74.62 19.17 74.26 18.29 74.14 17.29H78.01C78.13 17.87 78.45 18.37 78.97 18.79C79.51 19.19 80.2 19.39 81.04 19.39C81.88 19.39 82.49 19.22 82.87 18.88C83.27 18.54 83.47 18.15 83.47 17.71C83.47 17.07 83.19 16.64 82.63 16.42C82.07 16.18 81.29 15.95 80.29 15.73C79.65 15.59 79 15.42 78.34 15.22C77.68 15.02 77.07 14.77 76.51 14.47C75.97 14.15 75.53 13.75 75.19 13.27C74.85 12.77 74.68 12.16 74.68 11.44C74.68 10.12 75.2 9.01 76.24 8.11C77.3 7.21 78.78 6.76 80.68 6.76C82.44 6.76 83.84 7.17 84.88 7.99C85.94 8.81 86.57 9.94 86.77 11.38H83.14C82.92 10.28 82.09 9.73 80.65 9.73C79.93 9.73 79.37 9.87 78.97 10.15C78.59 10.43 78.4 10.78 78.4 11.2C78.4 11.64 78.69 11.99 79.27 12.25C79.85 12.51 80.62 12.75 81.58 12.97C82.62 13.21 83.57 13.48 84.43 13.78C85.31 14.06 86.01 14.49 86.53 15.07C87.05 15.63 87.31 16.44 87.31 17.5C87.33 18.42 87.09 19.25 86.59 19.99C86.09 20.73 85.37 21.31 84.43 21.73C83.49 22.15 82.38 22.36 81.1 22.36ZM92.7817 4.81C92.0817 4.81 91.5017 4.6 91.0417 4.18C90.6017 3.76 90.3817 3.23 90.3817 2.59C90.3817 1.95 90.6017 1.43 91.0417 1.03C91.5017 0.609999 92.0817 0.399999 92.7817 0.399999C93.4817 0.399999 94.0517 0.609999 94.4917 1.03C94.9517 1.43 95.1817 1.95 95.1817 2.59C95.1817 3.23 94.9517 3.76 94.4917 4.18C94.0517 4.6 93.4817 4.81 92.7817 4.81ZM90.8617 22V7.12H94.7017V22H90.8617ZM99.3998 22V10.33H97.3598V7.12H99.3998V5.38C99.3998 3.58 99.8498 2.3 100.75 1.54C101.67 0.779999 102.91 0.399999 104.47 0.399999H106.12V3.67H105.07C104.41 3.67 103.94 3.8 103.66 4.06C103.38 4.32 103.24 4.76 103.24 5.38V7.12H106.45V10.33H103.24V22H99.3998ZM111.351 28.6L114.801 21.01H113.901L108.111 7.12H112.281L116.451 17.59L120.801 7.12H124.881L115.431 28.6H111.351ZM126.756 22.21C126.056 22.21 125.476 21.99 125.016 21.55C124.576 21.11 124.356 20.58 124.356 19.96C124.356 19.32 124.576 18.78 125.016 18.34C125.476 17.9 126.056 17.68 126.756 17.68C127.456 17.68 128.026 17.9 128.466 18.34C128.926 18.78 129.156 19.32 129.156 19.96C129.156 20.58 128.926 21.11 128.466 21.55C128.026 21.99 127.456 22.21 126.756 22.21Z" fill="#FF3D00"/>
</svg>
