<svg width="475" height="179" viewBox="0 0 475 179" fill="none" xmlns="http://www.w3.org/2000/svg">
<path d="M93.08 77.02H119.72V128.14C112.88 133.3 104.96 137.26 95.96 140.02C86.96 142.78 77.9 144.16 68.78 144.16C55.7 144.16 43.94 141.4 33.5 135.88C23.06 130.24 14.84 122.5 8.84 112.66C2.96 102.7 0.0200001 91.48 0.0200001 79C0.0200001 66.52 2.96 55.36 8.84 45.52C14.84 35.56 23.12 27.82 33.68 22.3C44.24 16.66 56.12 13.84 69.32 13.84C80.36 13.84 90.38 15.7 99.38 19.42C108.38 23.14 115.94 28.54 122.06 35.62L103.34 52.9C94.34 43.42 83.48 38.68 70.76 38.68C62.72 38.68 55.58 40.36 49.34 43.72C43.1 47.08 38.24 51.82 34.76 57.94C31.28 64.06 29.54 71.08 29.54 79C29.54 86.8 31.28 93.76 34.76 99.88C38.24 106 43.04 110.8 49.16 114.28C55.4 117.64 62.48 119.32 70.4 119.32C78.8 119.32 86.36 117.52 93.08 113.92V77.02ZM144.827 45.16H172.907V142H144.827V45.16ZM158.867 31.66C153.707 31.66 149.507 30.16 146.267 27.16C143.027 24.16 141.407 20.44 141.407 16C141.407 11.56 143.027 7.83999 146.267 4.84C149.507 1.83999 153.707 0.339989 158.867 0.339989C164.027 0.339989 168.227 1.77999 171.467 4.66C174.707 7.54 176.327 11.14 176.327 15.46C176.327 20.14 174.707 24.04 171.467 27.16C168.227 30.16 164.027 31.66 158.867 31.66ZM229.748 47.32H254.588V68.92H230.468V142H202.388V68.92H187.448V47.32H202.388V43C202.388 31.96 205.628 23.2 212.108 16.72C218.708 10.24 227.948 6.99999 239.828 6.99999C244.028 6.99999 247.988 7.47999 251.708 8.43999C255.548 9.28 258.728 10.54 261.248 12.22L253.868 32.56C250.628 30.28 246.848 29.14 242.528 29.14C234.008 29.14 229.748 33.82 229.748 43.18V47.32ZM331.037 137.32C328.277 139.36 324.857 140.92 320.777 142C316.817 142.96 312.617 143.44 308.177 143.44C296.657 143.44 287.717 140.5 281.357 134.62C275.117 128.74 271.997 120.1 271.997 108.7V68.92H257.057V47.32H271.997V23.74H300.077V47.32H324.197V68.92H300.077V108.34C300.077 112.42 301.097 115.6 303.137 117.88C305.297 120.04 308.297 121.12 312.137 121.12C316.577 121.12 320.357 119.92 323.477 117.52L331.037 137.32ZM441.162 45.16L397.422 147.94C392.982 159.1 387.462 166.96 380.862 171.52C374.382 176.08 366.522 178.36 357.282 178.36C352.242 178.36 347.262 177.58 342.342 176.02C337.422 174.46 333.402 172.3 330.282 169.54L340.542 149.56C342.702 151.48 345.162 152.98 347.922 154.06C350.802 155.14 353.622 155.68 356.382 155.68C360.222 155.68 363.342 154.72 365.742 152.8C368.142 151 370.302 147.94 372.222 143.62L372.582 142.72L330.642 45.16H359.622L386.802 110.86L414.162 45.16H441.162ZM457.439 143.44C452.519 143.44 448.379 141.76 445.019 138.4C441.659 135.04 439.979 130.84 439.979 125.8C439.979 120.64 441.659 116.5 445.019 113.38C448.379 110.14 452.519 108.52 457.439 108.52C462.359 108.52 466.499 110.14 469.859 113.38C473.219 116.5 474.899 120.64 474.899 125.8C474.899 130.84 473.219 135.04 469.859 138.4C466.499 141.76 462.359 143.44 457.439 143.44Z" fill="#E89998"/>
</svg>
