<svg id="visual" viewBox="0 0 900 600" width="900" height="600" xmlns="http://www.w3.org/2000/svg" xmlns:xlink="http://www.w3.org/1999/xlink" version="1.1"><path d="M0 492L21.5 487.7C43 483.3 86 474.7 128.8 475.7C171.7 476.7 214.3 487.3 257.2 487.8C300 488.3 343 478.7 385.8 478.8C428.7 479 471.3 489 514.2 486.2C557 483.3 600 467.7 642.8 467.8C685.7 468 728.3 484 771.2 485.8C814 487.7 857 475.3 878.5 469.2L900 463L900 601L878.5 601C857 601 814 601 771.2 601C728.3 601 685.7 601 642.8 601C600 601 557 601 514.2 601C471.3 601 428.7 601 385.8 601C343 601 300 601 257.2 601C214.3 601 171.7 601 128.8 601C86 601 43 601 21.5 601L0 601Z" fill="#fa7268"></path><path d="M0 500L21.5 497.7C43 495.3 86 490.7 128.8 488.3C171.7 486 214.3 486 257.2 488.5C300 491 343 496 385.8 499.3C428.7 502.7 471.3 504.3 514.2 502.2C557 500 600 494 642.8 491.8C685.7 489.7 728.3 491.3 771.2 490.3C814 489.3 857 485.7 878.5 483.8L900 482L900 601L878.5 601C857 601 814 601 771.2 601C728.3 601 685.7 601 642.8 601C600 601 557 601 514.2 601C471.3 601 428.7 601 385.8 601C343 601 300 601 257.2 601C214.3 601 171.7 601 128.8 601C86 601 43 601 21.5 601L0 601Z" fill="#ef5f67"></path><path d="M0 530L21.5 529.3C43 528.7 86 527.3 128.8 522.8C171.7 518.3 214.3 510.7 257.2 511.2C300 511.7 343 520.3 385.8 520.5C428.7 520.7 471.3 512.3 514.2 509C557 505.7 600 507.3 642.8 511.7C685.7 516 728.3 523 771.2 527.2C814 531.3 857 532.7 878.5 533.3L900 534L900 601L878.5 601C857 601 814 601 771.2 601C728.3 601 685.7 601 642.8 601C600 601 557 601 514.2 601C471.3 601 428.7 601 385.8 601C343 601 300 601 257.2 601C214.3 601 171.7 601 128.8 601C86 601 43 601 21.5 601L0 601Z" fill="#e34c67"></path><path d="M0 548L21.5 550.2C43 552.3 86 556.7 128.8 553.3C171.7 550 214.3 539 257.2 536C300 533 343 538 385.8 543.5C428.7 549 471.3 555 514.2 556C557 557 600 553 642.8 547.7C685.7 542.3 728.3 535.7 771.2 533.8C814 532 857 535 878.5 536.5L900 538L900 601L878.5 601C857 601 814 601 771.2 601C728.3 601 685.7 601 642.8 601C600 601 557 601 514.2 601C471.3 601 428.7 601 385.8 601C343 601 300 601 257.2 601C214.3 601 171.7 601 128.8 601C86 601 43 601 21.5 601L0 601Z" fill="#d53867"></path><path d="M0 575L21.5 572.3C43 569.7 86 564.3 128.8 563.8C171.7 563.3 214.3 567.7 257.2 568.5C300 569.3 343 566.7 385.8 565.7C428.7 564.7 471.3 565.3 514.2 567.3C557 569.3 600 572.7 642.8 574C685.7 575.3 728.3 574.7 771.2 575.2C814 575.7 857 577.3 878.5 578.2L900 579L900 601L878.5 601C857 601 814 601 771.2 601C728.3 601 685.7 601 642.8 601C600 601 557 601 514.2 601C471.3 601 428.7 601 385.8 601C343 601 300 601 257.2 601C214.3 601 171.7 601 128.8 601C86 601 43 601 21.5 601L0 601Z" fill="#c62368"></path></svg>